<?xml version="1.0" encoding="UTF-8" standalone="no"?>
<svg
   viewBox="0 0 314.09 314.09"
   version="1.1"
   id="svg30"
   sodipodi:docname="Element_Geo_White.svg"
   inkscape:version="1.2.1 (9c6d41e410, 2022-07-14)"
   xmlns:inkscape="http://www.inkscape.org/namespaces/inkscape"
   xmlns:sodipodi="http://sodipodi.sourceforge.net/DTD/sodipodi-0.dtd"
   xmlns="http://www.w3.org/2000/svg"
   xmlns:svg="http://www.w3.org/2000/svg">
  <sodipodi:namedview
     id="namedview32"
     pagecolor="#ffffff"
     bordercolor="#111111"
     borderopacity="1"
     inkscape:showpageshadow="0"
     inkscape:pageopacity="0"
     inkscape:pagecheckerboard="1"
     inkscape:deskcolor="#d1d1d1"
     showgrid="false"
     inkscape:zoom="2.6648413"
     inkscape:cx="145.78729"
     inkscape:cy="157.60788"
     inkscape:window-width="1920"
     inkscape:window-height="1017"
     inkscape:window-x="-8"
     inkscape:window-y="-8"
     inkscape:window-maximized="1"
     inkscape:current-layer="g140" />
  <defs
     id="defs20">
    <style
       id="style18">.cls-1{fill:#fff;}.cls-2{fill:none;}</style>
  </defs>
  <g
     id="g140"
     inkscape:label="Main">
    <g
       id="g227"
       inkscape:label="SecondHalf">
      <path
         id="path22"
         class="cls-1"
         d="M 157.04492 29.761719 L 157.04492 42.052734 C 157.30403 42.347672 232.08069 127.49857 249.57031 189.64062 L 251.63086 188.00977 A 75.5 75.5 0 0 0 274.91016 156.91992 C 274.91016 156.91992 215.87985 68.537124 157.04492 29.761719 z M 157.04492 81.580078 L 157.04492 109.33789 C 157.18238 109.43782 175.37177 122.68817 183.55078 145.71094 L 157.04492 170.83008 L 154.83984 172.91992 L 157.04492 175.89062 L 163.41992 184.48047 L 206.66016 147.57031 C 206.66016 147.57031 184.93275 105.04812 157.04492 81.580078 z M 157.04492 138.24414 L 157.04492 143.19336 L 159.19922 141.15039 L 157.04492 138.24414 z M 218.84961 154.59961 C 218.84961 154.59961 171.21156 199.68782 157.04492 204.35742 L 157.04492 232.49414 C 157.04701 232.4959 157.0487 232.49824 157.05078 232.5 L 212.14062 186 C 212.14062 186 199.6307 229.99946 157.05078 272.10938 C 157.05078 272.10936 157.04493 272.10158 157.04492 272.10156 L 157.04492 284.35547 C 157.04686 284.35675 157.04884 284.3581 157.05078 284.35938 C 157.05078 284.35938 222.9494 232.16932 238.60938 204.35938 C 238.60938 204.35938 227.78959 165.35959 218.84961 154.59961 z "
         style="stroke:#000000;fill:#000000" />
    </g>
    <g
       id="g220"
       inkscape:label="FirstHalf">
      <path
         id="path212"
         class="cls-1"
         d="M 157 29.730469 C 157 29.730469 91.099421 81.910524 75.439453 109.73047 C 75.439453 109.73047 86.249237 148.73002 95.199219 159.5 C 95.199219 159.5 142.83002 113.96078 157 109.30078 C 157 109.30078 157.0444 109.33751 157.04492 109.33789 L 157.04492 81.580078 C 157.02958 81.567171 157.01534 81.551958 157 81.539062 L 102 128.14062 C 102 128.14062 114.46008 84.149916 157 42 C 157 42 157.04447 42.052223 157.04492 42.052734 L 157.04492 29.761719 C 157.02987 29.751796 157.01506 29.740385 157 29.730469 z M 64.519531 124.43945 L 62.449219 126.07031 A 75.64 75.64 0 0 0 39.169922 157.16992 C 39.169922 157.16992 98.236961 245.58355 157.04492 284.35547 L 157.04492 272.10156 C 157.00844 272.01011 81.995247 186.68419 64.519531 124.43945 z M 150.63086 129.58984 L 107.39062 166.5 C 107.39062 166.5 129.17797 208.9831 157.04492 232.49414 L 157.04492 204.35742 C 157.04313 204.35801 157.04085 204.35879 157.03906 204.35938 C 157.03906 204.35938 138.69998 191.49932 130.5 168.35938 L 157.04492 143.19336 L 157.04492 138.24414 L 150.63086 129.58984 z "
         style="stroke:#000000;fill:#000000" />
    </g>
  </g>
</svg>
