<?xml version="1.0" encoding="UTF-8" standalone="no"?>
<svg
   viewBox="0 0 314.09 314.09"
   version="1.1"
   id="svg103"
   sodipodi:docname="Element_Dendro_White.svg"
   inkscape:version="1.2.1 (9c6d41e410, 2022-07-14)"
   xmlns:inkscape="http://www.inkscape.org/namespaces/inkscape"
   xmlns:sodipodi="http://sodipodi.sourceforge.net/DTD/sodipodi-0.dtd"
   xmlns="http://www.w3.org/2000/svg"
   xmlns:svg="http://www.w3.org/2000/svg">
  <sodipodi:namedview
     id="namedview105"
     pagecolor="#ffffff"
     bordercolor="#111111"
     borderopacity="1"
     inkscape:showpageshadow="0"
     inkscape:pageopacity="0"
     inkscape:pagecheckerboard="1"
     inkscape:deskcolor="#d1d1d1"
     showgrid="false"
     inkscape:zoom="2.6648413"
     inkscape:cx="157.045"
     inkscape:cy="157.23263"
     inkscape:window-width="1920"
     inkscape:window-height="1017"
     inkscape:window-x="-8"
     inkscape:window-y="-8"
     inkscape:window-maximized="1"
     inkscape:current-layer="layer1" />
  <defs
     id="defs77">
    <style
       id="style75">.cls-1{fill:#fff;}.cls-2{fill:none;}</style>
  </defs>
  <g
     inkscape:groupmode="layer"
     id="layer1"
     inkscape:label="Main">
    <g
       id="g313"
       inkscape:label="SecondHalf">
      <path
         id="path293"
         class="cls-1"
         d="M 157.04492 22.660156 L 157.04492 96.09375 L 157.05078 96.099609 L 172.23047 78.429688 A 24 24 0 0 0 174.32031 50 L 157.05078 22.650391 L 157.04492 22.660156 z " />
      <path
         id="path296"
         class="cls-1"
         d="M 157.04492 258.28906 L 157.04492 290.9375 C 157.04913 291.11886 157.07031 291.29869 157.07031 291.48047 C 157.07031 268.17049 191.81971 248.35046 211.92969 238.73047 C 229.71967 230.21048 260.99969 213.00902 267.92969 173.78906 L 267.33984 173.2793 L 268.11914 172.71094 A 93.51 93.51 0 0 0 269.33008 157.44922 C 269.33008 106.43927 228.82091 84 203.46094 84 C 184.33096 84 170.50913 95.410318 164.86914 101.07031 A 5.07 5.07 0 0 0 164.2207 107.41016 L 168.28906 113.66016 A 2.42 2.42 0 0 0 172.2207 113.83984 C 177.5007 107.17985 193.39917 91.700557 221.11914 102.06055 C 241.76912 109.79054 254.76953 129.00002 254.76953 152 C 254.76953 174.99998 240.55934 208.43072 203.35938 222.2207 C 166.15941 236.01069 157.05078 258.30078 157.05078 258.30078 C 157.05078 258.30078 157.04496 258.28916 157.04492 258.28906 z " />
      <path
         class="cls-1"
         d="M268.12,172.71c-.05.36-.12.72-.19,1.08l-.59-.51Z"
         id="path91" />
      <path
         class="cls-1"
         d="M173.35,206.42c31.66-27.84,39-46.35,31.81-63S178,133.45,178,133.45c17.07-17.7,31.49-14.39,39.5-9.91a26.73,26.73,0,0,1,11,12c6.49,13.75.57,27.06-9.45,38.36,6.32.52,14.12,3.24,18.63,12.44,0,0-4.65-4.77-11-5.6s-12.7-1.17-17.62,2.8h0C192.78,197.37,173.35,206.42,173.35,206.42Z"
         id="path93" />
      <path
         class="cls-1"
         d="M253.22,92.75a16.79,16.79,0,0,1,15.94-14.59l20.37-.83-4.77,16.8a18.24,18.24,0,0,1-20,13.08l-13.14-1.81Z"
         id="path95" />
      <path
         class="cls-1"
         d="M300.3,175l-10,6.6a12,12,0,0,1-14.51-.94l-7.9-6.84-.59-.51.78-.57,7.48-5.48a12,12,0,0,1,14.24,0Z"
         id="path97" />
    </g>
    <g
       id="g305"
       inkscape:label="FirstHalf">
      <path
         id="path79"
         class="cls-1"
         d="M 157.04492 22.660156 L 139.76953 50 A 24 24 0 0 0 141.85938 78.429688 L 157.04492 96.09375 L 157.04492 22.660156 z " />
      <path
         id="path81"
         class="cls-1"
         d="M 157.04492 258.28906 C 157.01756 258.22229 147.88434 235.98998 110.74023 222.2207 C 73.540272 208.43072 59.330078 174.99998 59.330078 152 C 59.330078 129.00002 72.290021 109.74999 93 102 C 120.69997 91.66001 136.5904 107.14079 141.90039 113.80078 A 2.42 2.42 0 0 0 145.83008 113.61914 L 149.90039 107.36914 A 5.05 5.05 0 0 0 149.25 101.0293 C 143.66001 95.409302 129.80014 83.960938 110.66016 83.960938 C 85.310182 83.960938 44.789062 106.41021 44.789062 157.41016 A 93.47 93.47 0 0 0 46 172.69922 L 46.800781 173.2793 L 46.199219 173.80078 C 53.119212 213.01074 84.399237 230.21048 102.19922 238.73047 C 122.15237 248.27544 156.50998 267.86372 157.04492 290.9375 L 157.04492 258.28906 z " />
      <path
         class="cls-1"
         d="M46.76,173.28l-.6.52c-.07-.36-.14-.73-.19-1.1Z"
         id="path83"
         inkscape:label="path83" />
      <path
         class="cls-1"
         d="M140.75,206.42c-31.67-27.84-39-46.35-31.82-63s27.13-9.94,27.13-9.94c-17.07-17.7-31.49-14.39-39.49-9.91a26.73,26.73,0,0,0-11,12c-6.5,13.75-.57,27.06,9.45,38.36-6.32.52-14.13,3.24-18.63,12.44,0,0,4.65-4.77,11-5.6s12.7-1.17,17.62,2.8h0C121.32,197.37,140.75,206.42,140.75,206.42Z"
         id="path85" />
      <path
         class="cls-1"
         d="M60.87,92.75A16.77,16.77,0,0,0,44.93,78.16l-20.36-.83,4.77,16.8a18.22,18.22,0,0,0,20,13.08l13.14-1.81Z"
         id="path87" />
      <path
         class="cls-1"
         d="M46.76,173.28l-.6.52-7.89,6.83a12,12,0,0,1-14.52.94l-10-6.6,10.47-7.71a12,12,0,0,1,14.23,0L46,172.7Z"
         id="path89" />
    </g>
  </g>
</svg>
