<?xml version="1.0" encoding="UTF-8" standalone="no"?>
<svg
   viewBox="0 0 314.09 314.09"
   version="1.1"
   id="svg50"
   sodipodi:docname="Element_Hydro_White.svg"
   inkscape:version="1.2.1 (9c6d41e410, 2022-07-14)"
   xmlns:inkscape="http://www.inkscape.org/namespaces/inkscape"
   xmlns:sodipodi="http://sodipodi.sourceforge.net/DTD/sodipodi-0.dtd"
   xmlns="http://www.w3.org/2000/svg"
   xmlns:svg="http://www.w3.org/2000/svg">
  <sodipodi:namedview
     id="namedview52"
     pagecolor="#ffffff"
     bordercolor="#111111"
     borderopacity="1"
     inkscape:showpageshadow="0"
     inkscape:pageopacity="0"
     inkscape:pagecheckerboard="1"
     inkscape:deskcolor="#d1d1d1"
     showgrid="false"
     inkscape:zoom="2.6648413"
     inkscape:cx="157.045"
     inkscape:cy="157.23263"
     inkscape:window-width="1920"
     inkscape:window-height="1017"
     inkscape:window-x="-8"
     inkscape:window-y="-8"
     inkscape:window-maximized="1"
     inkscape:current-layer="g165" />
  <defs
     id="defs30">
    <style
       id="style28">.cls-1{fill:#fff;}.cls-2{fill:none;}</style>
  </defs>
  <g
     id="g165"
     inkscape:label="Main">
    <g
       id="g476"
       inkscape:label="SecondHalf">
      <path
         class="cls-1"
         d="M156.62,280c-15.53.38-28.14-2.22-38.2-6.05A122.71,122.71,0,0,0,156.62,280Z"
         id="path32" />
      <path
         id="path34"
         class="cls-1"
         d="M 157.04492 253.0293 L 157.04492 260.15039 C 180.00144 259.94045 191.14826 243.65137 192.5293 236.16992 C 191.4093 241.21992 182.62959 253.66016 163.09961 253.66016 A 37.51 37.51 0 0 1 157.04492 253.0293 z " />
      <path
         id="path466"
         class="cls-1"
         d="M 157.04492 171.98828 L 157.04492 200.44531 A 15 15 0 0 1 165.89062 211.00977 A 15.05 15.05 0 0 0 166.14062 212.5293 A 17.06 17.06 0 0 0 179.5293 225.75 A 17.27 17.27 0 0 0 187.73047 225.35938 A 17 17 0 0 0 199.82031 207.57031 L 199.82031 207.46094 A 16.82 16.82 0 0 0 199.51953 205.46094 C 199.46953 205.24094 199.42937 205.09055 199.35938 204.81055 C 199.28938 204.53055 199.22086 204.26 199.13086 204 A 44.18 44.18 0 0 0 157.04492 171.98828 z " />
      <path
         id="path348"
         class="cls-1"
         d="M 157.04492 34.390625 L 157.04492 73.962891 A 98.16 98.16 0 0 1 157.38086 73.939453 C 210.76081 74.399453 254.42008 118.10052 254.83008 171.48047 A 98.16 98.16 0 0 1 213.58008 252.31055 A 86.07 86.07 0 0 0 157.04492 102.23633 L 157.04492 137.52344 C 191.55564 139.33828 219.91976 167.09778 221.75977 202 A 68.25 68.25 0 0 1 215.64062 234.14062 C 205.79063 255.6906 184.21904 269.45063 160.53906 270.39062 C 159.36852 270.46051 158.2116 270.45982 157.04492 270.46094 L 157.04492 279.97852 C 224.83256 279.72131 280.28845 223.5433 279.58008 155.69922 A 123 123 0 0 0 157.04492 34.390625 z " />
    </g>
    <g
       id="g362"
       inkscape:label="FirstHalf"
       style="display:inline">
      <path
         class="cls-1"
         d="m 49.14,97.24 c -0.44,0.78 -0.87,1.57 -1.28,2.37 a 15.9,15.9 0 0 1 1.28,-2.37 z"
         id="path36" />
      <path
         class="cls-1"
         d="m 67.13,159 a 16.28,16.28 0 0 1 -8.8,14.47 v 0 A 16.31,16.31 0 1 1 67.13,159 Z"
         id="path38" />
      <path
         class="cls-1"
         d="m 85.11,212.7 a 11.94,11.94 0 0 1 -7.11,10.94 11.76,11.76 0 0 1 -4.48,1 h -0.3 a 11.93,11.93 0 0 1 -2,-23.7 11.4,11.4 0 0 1 2,-0.16 11.93,11.93 0 0 1 11.89,11.92 z"
         id="path40" />
      <path
         id="path42"
         class="cls-1"
         d="m 157.04492,270.46094 c -0.1689,1.6e-4 -0.3364,0.01 -0.50586,0.01 a 123.38,123.38 0 0 1 -35.8789,-4.6914 c -1.13,-0.3 -2.27946,-0.64 -3.43946,-1 a 108.58,108.58 0 0 1 -32.140622,-16 c 0.3,0.49 9.830805,16.21016 33.300782,25.16015 a 122.71,122.71 0 0 0 38.19922,6.05078 c 0.15585,0 0.30912,-0.0111 0.46484,-0.0117 z" />
      <path
         id="path352"
         class="cls-1"
         d="m 157.04492,102.23633 a 86.07,86.07 0 0 0 -31.46484,5.46289 l -0.82031,0.31055 -0.33008,0.13085 h -0.0703 l -0.17969,0.0801 h -0.12891 a 16.81,16.81 0 0 0 7,32.11914 17.07,17.07 0 0 0 4.13867,-0.50976 l 0.28125,-0.0801 a 68,68 0 0 1 17.62891,-2.40039 c 1.32958,-0.007 2.63246,0.10479 3.94531,0.17383 z" />
      <path
         id="path350"
         class="cls-1"
         d="M 157.04492,34.390625 A 123,123 0 0 0 49.140625,97.240234 c -0.44,0.78 -0.87125,1.569142 -1.28125,2.369141 A 16.37,16.37 0 0 0 75.710938,116.2793 c 0.339999,-0.46 0.66,-0.91891 1,-1.37891 A 98.16,98.16 0 0 1 157.04492,73.962891 Z" />
      <path
         class="cls-1"
         d="m 156.62,280 c -15.53,0.38 -28.14,-2.22 -38.2,-6.05 a 122.71,122.71 0 0 0 38.2,6.05 z"
         id="path44" />
      <path
         id="path468"
         class="cls-1"
         d="m 157.04492,171.98828 a 44.18,44.18 0 1 0 -0.43554,88.18164 c 0.14995,0 0.28659,-0.0182 0.43554,-0.0195 v -7.12109 a 37.51,37.51 0 0 1 -9.27539,-2.61914 37.87,37.87 0 0 1 -18.62891,-18.08008 17.1,17.1 0 0 1 -1.75,-7.33008 26.08,26.08 0 0 1 20.0293,-25.41016 c 0.48,-0.12 0.97071,-0.22078 1.4707,-0.30078 a 15.62,15.62 0 0 1 2.28907,-0.16992 15,15 0 0 1 5.86523,1.32617 z" />
    </g>
  </g>
</svg>
