<?xml version="1.0" encoding="UTF-8" standalone="no"?>
<svg
   viewBox="0 0 314.09 314.09"
   version="1.1"
   id="svg395"
   sodipodi:docname="Element_Anemo_White.svg"
   inkscape:version="1.2.1 (9c6d41e410, 2022-07-14)"
   xmlns:inkscape="http://www.inkscape.org/namespaces/inkscape"
   xmlns:sodipodi="http://sodipodi.sourceforge.net/DTD/sodipodi-0.dtd"
   xmlns="http://www.w3.org/2000/svg"
   xmlns:svg="http://www.w3.org/2000/svg">
  <sodipodi:namedview
     id="namedview397"
     pagecolor="#ffffff"
     bordercolor="#111111"
     borderopacity="1"
     inkscape:showpageshadow="0"
     inkscape:pageopacity="0"
     inkscape:pagecheckerboard="1"
     inkscape:deskcolor="#d1d1d1"
     showgrid="false"
     inkscape:zoom="2.6648413"
     inkscape:cx="157.045"
     inkscape:cy="157.23263"
     inkscape:window-width="1920"
     inkscape:window-height="1017"
     inkscape:window-x="-8"
     inkscape:window-y="-8"
     inkscape:window-maximized="1"
     inkscape:current-layer="layer2" />
  <defs
     id="defs379">
    <style
       id="style377">.cls-1{fill:#fff;}.cls-2{fill:none;}</style>
  </defs>
  <g
     inkscape:groupmode="layer"
     id="layer2"
     inkscape:label="Main">
    <g
       id="g465"
       inkscape:label="SecondHalf">
      <path
         class="cls-1"
         d="M241.7,78.05c0-34.43-40.5-53.48-40.5-53.48,36,79.57-32.35,124.18-32.35,124.18C200,140.47,241.7,126.18,241.7,78.05Z"
         id="path385" />
      <path
         class="cls-1"
         d="M286.31,117.18s-17.22,44.61-56.94,46.18-56.84,2.93-57,30.13,27.44,30.13,28.81,12.13c0,0-23.48-.39-23.48-16.24s13.89-15.26,19.56-14.68,39.34,26.81,71.91,8S286.31,117.18,286.31,117.18Z"
         id="path387" />
      <path
         id="path454"
         class="cls-1"
         d="M 157.04492 182.05078 L 157.04492 216.68945 L 157.07031 216.68945 C 157.72031 227.03944 176.92969 236.24023 176.92969 236.24023 L 170.24023 236.24023 A 13 13 0 0 1 162.83008 234 A 34.91 34.91 0 0 1 157.04492 228.80664 L 157.04492 237.75195 A 20.78 20.78 0 0 0 169.33008 246.43945 C 169.33008 246.43945 157.52439 262.30898 157.04492 267.98438 L 157.04492 289.38281 C 157.27733 288.6781 169.88997 250.78597 203.88086 224.85938 L 201.66016 223.67969 A 12.9 12.9 0 0 0 191.18945 222.88086 A 29.21 29.21 0 0 1 181.2207 224.51953 C 172.38071 224.51953 161.64062 214.21053 161.64062 197.31055 L 161.7207 193.13086 A 26.82 26.82 0 0 1 170.7207 173.55078 C 180.66069 164.76079 197.35072 155.98078 217.4707 154.55078 C 256.21066 151.81078 286.53067 122.85916 257.9707 62.199219 C 257.9707 62.199219 259.33989 111.69916 223.91992 133.61914 C 188.49996 155.53912 167.72007 159.24916 157.08008 182.11914 C 157.06895 182.09519 157.05608 182.07469 157.04492 182.05078 z " />
    </g>
    <g
       id="g460"
       inkscape:label="FirstHalf">
      <path
         class="cls-1"
         d="M145.24,148.75S76.89,104.14,112.89,24.57c0,0-40.5,19-40.5,53.48C72.39,126.18,114.06,140.47,145.24,148.75Z"
         id="path381" />
      <path
         class="cls-1"
         d="M136.37,189.38c0,15.85-23.48,16.24-23.48,16.24,1.37,18,29,15.06,28.81-12.13s-17.27-28.57-57-30.13-56.94-46.18-56.94-46.18S12.32,163.94,44.9,182.73s66.23-7.44,71.9-8S136.37,173.53,136.37,189.38Z"
         id="path383" />
      <path
         id="path389"
         class="cls-1"
         d="M 157.04492 182.05078 C 146.40478 159.24478 125.61312 155.50618 90.240234 133.61914 C 54.83027 111.70916 56.240234 62.199219 56.240234 62.199219 C 27.680263 122.85916 58.000273 151.81078 96.740234 154.55078 C 116.86021 155.98078 133.54048 164.76079 143.48047 173.55078 A 26.75 26.75 0 0 1 152.48047 193.13086 L 152.56055 197.31055 C 152.56055 214.21053 141.82046 224.51953 132.98047 224.51953 A 29.25 29.25 0 0 1 122.98047 222.88086 A 12.91 12.91 0 0 0 112.50977 223.67969 L 110.28906 224.85938 C 144.46903 250.99935 157 289.50977 157 289.50977 C 157 289.50977 157.04274 289.38943 157.04492 289.38281 L 157.04492 267.98438 C 157.03501 268.10171 157 268.24124 157 268.34961 C 157 263.00961 144.66992 246.43945 144.66992 246.43945 A 20.78 20.78 0 0 0 157 237.69922 A 20.78 20.78 0 0 0 157.04492 237.75195 L 157.04492 228.80664 A 34.91 34.91 0 0 1 157.03906 228.80078 A 34.6 34.6 0 0 1 151.25977 234 A 13 13 0 0 1 143.84961 236.24023 L 137.15039 236.24023 C 137.15039 236.24023 156.35977 227.03944 157.00977 216.68945 L 157.04492 216.68945 L 157.04492 182.05078 z " />
    </g>
  </g>
</svg>
