<?xml version="1.0" encoding="UTF-8" standalone="no"?>
<svg
   viewBox="0 0 314.09 314.09"
   version="1.1"
   id="svg395"
   sodipodi:docname="Element_Anemo_White.svg"
   inkscape:version="1.2.1 (9c6d41e410, 2022-07-14)"
   xmlns:inkscape="http://www.inkscape.org/namespaces/inkscape"
   xmlns:sodipodi="http://sodipodi.sourceforge.net/DTD/sodipodi-0.dtd"
   xmlns="http://www.w3.org/2000/svg"
   xmlns:svg="http://www.w3.org/2000/svg">
  <sodipodi:namedview
     id="namedview397"
     pagecolor="#ffffff"
     bordercolor="#111111"
     borderopacity="1"
     inkscape:showpageshadow="0"
     inkscape:pageopacity="0"
     inkscape:pagecheckerboard="1"
     inkscape:deskcolor="#d1d1d1"
     showgrid="false"
     inkscape:zoom="1.8843274"
     inkscape:cx="135.59215"
     inkscape:cy="101.89312"
     inkscape:window-width="1920"
     inkscape:window-height="1017"
     inkscape:window-x="-8"
     inkscape:window-y="-8"
     inkscape:window-maximized="1"
     inkscape:current-layer="layer2" />
  <defs
     id="defs379">
    <style
       id="style377">.cls-1{fill:#fff;}.cls-2{fill:none;}</style>
  </defs>
  <g
     inkscape:groupmode="layer"
     id="layer2"
     inkscape:label="Main">
    <g
       id="g465"
       inkscape:label="SecondHalf"
       style="fill:#000000;stroke:#000000">
      <path
         id="path385"
         class="cls-1"
         d="M 201.19922 24.570312 C 237.19918 104.14023 168.84961 148.75 168.84961 148.75 C 199.99958 140.47001 241.69922 126.18073 241.69922 78.050781 C 241.69922 43.620816 201.19922 24.570313 201.19922 24.570312 z M 257.9707 62.199219 C 257.9707 62.199219 259.33986 111.69918 223.91992 133.61914 C 188.5 155.5391 167.72006 159.24918 157.08008 182.11914 C 157.06895 182.09519 157.05608 182.07469 157.04492 182.05078 L 157.04492 216.68945 L 157.07031 216.68945 C 157.72031 227.03943 176.92969 236.24023 176.92969 236.24023 L 170.24023 236.24023 A 13 13 0 0 1 162.83008 234 A 34.91 34.91 0 0 1 157.04492 228.80664 L 157.04492 237.75195 A 20.78 20.78 0 0 0 169.33008 246.43945 C 169.33008 246.43945 157.52439 262.30898 157.04492 267.98438 L 157.04492 289.38281 C 157.27733 288.6781 169.89 250.78594 203.88086 224.85938 L 201.66016 223.67969 A 12.9 12.9 0 0 0 191.18945 222.88086 A 29.21 29.21 0 0 1 181.2207 224.51953 C 172.38072 224.51953 161.64063 214.21051 161.64062 197.31055 L 161.7207 193.13086 A 26.82 26.82 0 0 1 170.7207 173.55078 C 180.66068 164.7608 197.35074 155.98078 217.4707 154.55078 C 256.21062 151.81078 286.53064 122.8591 257.9707 62.199219 z M 286.31055 117.17969 C 286.31055 117.17969 269.0891 161.78938 229.36914 163.35938 C 189.64918 164.92937 172.52914 166.29026 172.36914 193.49023 C 172.20914 220.69021 199.80969 223.61912 201.17969 205.61914 C 201.17969 205.61914 177.69922 205.23084 177.69922 189.38086 C 177.69922 173.53088 191.58977 174.11922 197.25977 174.69922 C 202.92976 175.27922 236.59995 201.5092 269.16992 182.69922 C 301.73989 163.88924 286.31055 117.17969 286.31055 117.17969 z "
         style="stroke:#000000;fill:#000000" />
    </g>
    <g
       id="g460"
       inkscape:label="FirstHalf"
       style="fill:#000000;stroke:#000000">
      <path
         id="path381"
         class="cls-1"
         d="M 112.89062 24.570312 C 112.89062 24.570312 72.390625 43.570816 72.390625 78.050781 C 72.390625 126.18073 114.06027 140.47001 145.24023 148.75 C 145.24023 148.75 76.890661 104.14023 112.89062 24.570312 z M 56.240234 62.199219 C 27.680292 122.8591 58.000312 151.81078 96.740234 154.55078 C 116.86019 155.98078 133.54049 164.7608 143.48047 173.55078 A 26.75 26.75 0 0 1 152.48047 193.13086 L 152.56055 197.31055 C 152.56055 214.21051 141.82045 224.51953 132.98047 224.51953 A 29.25 29.25 0 0 1 122.98047 222.88086 A 12.91 12.91 0 0 0 112.50977 223.67969 L 110.28906 224.85938 C 144.469 250.99932 157 289.50977 157 289.50977 C 157 289.50977 157.04274 289.38943 157.04492 289.38281 L 157.04492 267.98438 C 157.03501 268.1017 157 268.24124 157 268.34961 C 157 263.00961 144.66992 246.43945 144.66992 246.43945 A 20.78 20.78 0 0 0 157 237.69922 A 20.78 20.78 0 0 0 157.04492 237.75195 L 157.04492 228.80664 A 34.91 34.91 0 0 1 157.03906 228.80078 A 34.6 34.6 0 0 1 151.25977 234 A 13 13 0 0 1 143.84961 236.24023 L 137.15039 236.24023 C 137.15039 236.24023 156.35977 227.03943 157.00977 216.68945 L 157.04492 216.68945 L 157.04492 182.05078 C 146.40479 159.2448 125.61309 155.50616 90.240234 133.61914 C 54.830306 111.70918 56.240234 62.199219 56.240234 62.199219 z M 27.759766 117.17969 C 27.759766 117.17969 12.320423 163.94049 44.900391 182.73047 C 77.480358 201.52045 111.13079 175.29047 116.80078 174.73047 C 122.47078 174.17047 136.36914 173.53088 136.36914 189.38086 C 136.36914 205.23084 112.89062 205.61914 112.89062 205.61914 C 114.26062 223.61912 141.88922 220.68021 141.69922 193.49023 C 141.50922 166.30026 124.42918 164.91937 84.699219 163.35938 C 44.969258 161.79938 27.759766 117.17969 27.759766 117.17969 z "
         style="stroke:#000000;fill:#000000" />
    </g>
  </g>
</svg>
