<?xml version="1.0" encoding="UTF-8" standalone="no"?>
<svg
   viewBox="0 0 314.09 314.09"
   version="1.1"
   id="svg103"
   sodipodi:docname="Element_Dendro_White.svg"
   inkscape:version="1.2.1 (9c6d41e410, 2022-07-14)"
   xmlns:inkscape="http://www.inkscape.org/namespaces/inkscape"
   xmlns:sodipodi="http://sodipodi.sourceforge.net/DTD/sodipodi-0.dtd"
   xmlns="http://www.w3.org/2000/svg"
   xmlns:svg="http://www.w3.org/2000/svg">
  <sodipodi:namedview
     id="namedview105"
     pagecolor="#ffffff"
     bordercolor="#111111"
     borderopacity="1"
     inkscape:showpageshadow="0"
     inkscape:pageopacity="0"
     inkscape:pagecheckerboard="1"
     inkscape:deskcolor="#d1d1d1"
     showgrid="false"
     inkscape:zoom="2.6648413"
     inkscape:cx="138.65741"
     inkscape:cy="157.98314"
     inkscape:window-width="1920"
     inkscape:window-height="1017"
     inkscape:window-x="-8"
     inkscape:window-y="-8"
     inkscape:window-maximized="1"
     inkscape:current-layer="layer1" />
  <defs
     id="defs77">
    <style
       id="style75">.cls-1{fill:#fff;}.cls-2{fill:none;}</style>
  </defs>
  <g
     inkscape:groupmode="layer"
     id="layer1"
     inkscape:label="Main">
    <g
       id="g313"
       inkscape:label="SecondHalf"
       style="fill:#ffffff;stroke:#ffffff">
      <path
         id="path293"
         class="cls-1"
         d="M 157.05078 22.650391 L 157.04492 22.660156 L 157.04492 96.09375 L 157.05078 96.099609 L 172.23047 78.429688 A 24 24 0 0 0 174.32031 50 L 157.05078 22.650391 z M 289.5293 77.330078 L 269.16016 78.160156 A 16.79 16.79 0 0 0 253.2207 92.75 L 251.61914 105.40039 L 264.75977 107.21094 A 18.24 18.24 0 0 0 284.75977 94.130859 L 289.5293 77.330078 z M 203.46094 84 C 184.33098 84 170.50912 95.410326 164.86914 101.07031 A 5.07 5.07 0 0 0 164.2207 107.41016 L 168.28906 113.66016 A 2.42 2.42 0 0 0 172.2207 113.83984 C 177.5007 107.17986 193.3992 91.700564 221.11914 102.06055 C 241.7691 109.79053 254.76953 129.00004 254.76953 152 C 254.76953 174.99996 240.5593 208.43074 203.35938 222.2207 C 166.15944 236.01068 157.05078 258.30078 157.05078 258.30078 C 157.05078 258.30078 157.04496 258.28916 157.04492 258.28906 L 157.04492 290.9375 C 157.04913 291.11886 157.07031 291.29869 157.07031 291.48047 C 157.07031 268.17051 191.81973 248.35045 211.92969 238.73047 C 229.71121 230.21453 260.96818 213.02419 267.91797 173.84375 L 275.78906 180.66016 A 12 12 0 0 0 290.30078 181.59961 L 300.30078 175 L 289.80078 167.25977 A 12 12 0 0 0 275.56055 167.25977 L 268.11914 172.71094 A 93.51 93.51 0 0 0 269.33008 157.44922 C 269.33008 106.43932 228.82088 84 203.46094 84 z M 204.81641 119.99023 C 197.3366 119.83883 188.1353 122.93985 178 133.44922 C 178 133.44922 197.97016 126.76994 205.16016 143.41992 C 212.35015 160.06991 205.00958 178.57995 173.34961 206.41992 C 173.34961 206.41992 192.78056 197.36905 209.06055 183.53906 C 213.98054 179.56907 220.32969 179.91024 226.67969 180.74023 C 233.02968 181.57023 237.67969 186.33984 237.67969 186.33984 C 233.16969 177.13985 225.37077 174.42039 219.05078 173.90039 C 229.07077 162.6004 234.98999 149.28905 228.5 135.53906 A 26.73 26.73 0 0 0 217.5 123.53906 C 214.24594 121.71906 209.93417 120.09383 204.81641 119.99023 z "
         style="fill:#000000;stroke:#000000" />
    </g>
    <g
       id="g305"
       inkscape:label="FirstHalf"
       style="fill:#ffffff;stroke:#ffffff">
      <path
         id="path79"
         class="cls-1"
         d="M 157.04492 22.660156 L 139.76953 50 A 24 24 0 0 0 141.85938 78.429688 L 157.04492 96.09375 L 157.04492 22.660156 z M 24.570312 77.330078 L 29.339844 94.130859 A 18.22 18.22 0 0 0 49.339844 107.21094 L 62.480469 105.40039 L 60.869141 92.75 A 16.77 16.77 0 0 0 44.929688 78.160156 L 24.570312 77.330078 z M 110.66016 83.960938 C 85.310204 83.960938 44.789062 106.41026 44.789062 157.41016 A 93.47 93.47 0 0 0 46 172.69922 L 46.800781 173.2793 L 46.199219 173.80078 C 53.119205 213.0107 84.399254 230.21049 102.19922 238.73047 C 122.15235 248.27543 156.50998 267.86374 157.04492 290.9375 L 157.04492 258.28906 C 157.01756 258.22229 147.88431 235.98997 110.74023 222.2207 C 73.540314 208.43074 59.330078 174.99996 59.330078 152 C 59.330078 129.00004 72.290042 109.74998 93 102 C 120.69994 91.66002 136.59041 107.1408 141.90039 113.80078 A 2.42 2.42 0 0 0 145.83008 113.61914 L 149.90039 107.36914 A 5.05 5.05 0 0 0 149.25 101.0293 C 143.66002 95.409304 129.80012 83.960937 110.66016 83.960938 z M 46 172.69922 L 38.449219 167.25977 A 12 12 0 0 0 24.220703 167.25977 L 13.75 174.9707 L 23.75 181.57031 A 12 12 0 0 0 38.269531 180.63086 L 46.160156 173.80078 L 46.759766 173.2793 L 46 172.69922 z M 109.24609 120.01953 C 104.12976 120.12312 99.820309 121.75031 96.570312 123.57031 A 26.73 26.73 0 0 0 85.570312 135.57031 C 79.070319 149.3203 84.999541 162.6297 95.019531 173.92969 C 88.699538 174.44969 80.890621 177.16915 76.390625 186.36914 C 76.390625 186.36914 81.040631 181.59953 87.390625 180.76953 C 93.740619 179.93953 100.08977 179.60032 105.00977 183.57031 C 121.31975 197.3703 140.75 206.41992 140.75 206.41992 C 109.08003 178.57995 101.74969 160.06991 108.92969 143.41992 C 116.10968 126.76994 136.06055 133.48047 136.06055 133.48047 C 125.92524 122.9711 116.72381 119.86813 109.24609 120.01953 z "
         style="fill:#000000;stroke:#000000" />
    </g>
  </g>
</svg>
