<?xml version="1.0" encoding="UTF-8" standalone="no"?>
<svg
   viewBox="0 0 314.09 314.09"
   version="1.1"
   id="svg74"
   sodipodi:docname="Element_Cryo_White.svg"
   inkscape:version="1.2.1 (9c6d41e410, 2022-07-14)"
   xmlns:inkscape="http://www.inkscape.org/namespaces/inkscape"
   xmlns:sodipodi="http://sodipodi.sourceforge.net/DTD/sodipodi-0.dtd"
   xmlns="http://www.w3.org/2000/svg"
   xmlns:svg="http://www.w3.org/2000/svg">
  <sodipodi:namedview
     id="namedview76"
     pagecolor="#ffffff"
     bordercolor="#111111"
     borderopacity="1"
     inkscape:showpageshadow="0"
     inkscape:pageopacity="0"
     inkscape:pagecheckerboard="1"
     inkscape:deskcolor="#d1d1d1"
     showgrid="false"
     inkscape:zoom="2.6648413"
     inkscape:cx="157.045"
     inkscape:cy="157.23263"
     inkscape:window-width="1920"
     inkscape:window-height="1017"
     inkscape:window-x="-8"
     inkscape:window-y="-8"
     inkscape:window-maximized="1"
     inkscape:current-layer="svg74" />
  <defs
     id="defs42">
    <style
       id="style40">.cls-1{fill:#fff;}.cls-2{fill:none;}</style>
  </defs>
  <g
     id="g195"
     inkscape:label="Main">
    <g
       id="g362"
       inkscape:label="SecondHalf">
      <path
         id="path341"
         class="cls-1"
         d="M 157.04492 12.220703 L 157.04492 56.099609 C 157.09848 55.999712 157.16993 55.900788 157.2207 55.800781 C 159.5407 60.370777 164.80047 64.800941 170.73047 68.710938 A 106.72 106.72 0 0 0 157.2207 117.41992 A 106.72 106.72 0 0 0 157.04492 115.20898 L 157.04492 136.10938 C 157.12437 137.13671 157.17969 138.15509 157.17969 139.15039 C 157.17969 116.36041 178.83001 84.419211 184.5 76.449219 C 190.84999 79.559216 195.83063 81.449375 196.14062 81.609375 C 181.31064 65.689391 157.2207 11.839844 157.2207 11.839844 C 157.2207 11.839844 157.0507 12.207812 157.04492 12.220703 z " />
      <path
         class="cls-1"
         d="M282.88,84.59S224.2,90.66,203,85.74c.25.21,4.42,3.56,10.28,7.5-4.06,8.89-20.9,43.61-40.63,55,19.73-11.4,58.22-8.62,68-7.69.49,7.05,1.3,12.34,1.36,12.66C248.29,132.38,282.88,84.59,282.88,84.59Zm-91.44,52.79a106.58,106.58,0,0,0,35.43-36c6.33,3.19,12.82,5.52,17.94,5.24-2.8,4.3-4,11.08-4.43,18.16C213.63,124.79,192.73,136.64,191.44,137.38Z"
         id="path46" />
      <path
         class="cls-1"
         d="M282.7,229.8S248.11,182,241.76,161.17c-.06.32-.87,5.61-1.35,12.66-9.74.93-48.22,3.71-68-7.69,19.74,11.4,36.57,46.11,40.64,55-5.87,3.94-10,7.29-10.29,7.5C224,223.73,282.7,229.8,282.7,229.8ZM191.27,177a106.79,106.79,0,0,0,48.94,12.65c.39,7.08,1.63,13.86,4.42,18.16-5.11-.28-11.61,2-17.93,5.24A106.77,106.77,0,0,0,191.27,177Z"
         id="path48" />
      <path
         id="path338"
         class="cls-1"
         d="M 157.04492 177.34375 L 157.04492 198.58008 A 106.72 106.72 0 0 0 170.38086 245.36914 C 164.58063 249.16423 159.43895 253.51541 157.04492 257.98047 L 157.04492 301.85938 C 157.56472 300.69951 181.12305 248.21569 195.86914 232.4707 C 195.55914 232.5807 190.58046 234.52086 184.23047 237.63086 C 178.7561 229.90688 158.44406 199.91707 157.04492 177.34375 z " />
      <path
         id="path335"
         class="cls-1"
         d="M 157.04492 152.41211 L 157.04492 163.6875 A 5.6500001 5.6500001 0 0 0 157.2207 163.69922 A 5.6500001 5.6500001 0 0 0 162.86914 158.05078 A 5.6500001 5.6500001 0 0 0 157.2207 152.40039 A 5.6500001 5.6500001 0 0 0 157.04492 152.41211 z " />
      <path
         class="cls-1"
         d="M172.93,145.09l-14.29,10.5L160.58,138a15.68,15.68,0,0,1,7.25-11.55l10.48-6.56a.94.94,0,0,1,1.43.83l-.44,12.36A15.63,15.63,0,0,1,172.93,145.09Z"
         id="path60" />
      <path
         class="cls-1"
         d="M176.29,165.18l-16.23-7.13,16.23-7.13a15.62,15.62,0,0,1,13.62.51l10.92,5.79a.94.94,0,0,1,0,1.66l-10.92,5.79A15.65,15.65,0,0,1,176.29,165.18Z"
         id="path62" />
      <path
         class="cls-1"
         d="M160.58,178.13l-1.94-17.62L172.93,171a15.65,15.65,0,0,1,6.37,12.05l.44,12.35a.93.93,0,0,1-1.43.83l-10.48-6.56A15.68,15.68,0,0,1,160.58,178.13Z"
         id="path64" />
    </g>
    <g
       id="g352"
       inkscape:label="FirstHalf"
       style="display:inline">
      <path
         id="path44"
         class="cls-1"
         d="m 157.04492,12.220703 c -0.5198,1.159861 -24.07812,53.643681 -38.82422,69.388672 0.31,-0.11 5.28868,-2.000159 11.63868,-5.160156 5.42236,7.65061 25.44574,37.163931 27.18554,59.660161 v -20.9004 A 106.72,106.72 0 0 0 143.71094,68.710938 c 5.80022,-3.795089 10.93996,-8.14627 13.33398,-12.611329 z" />
      <path
         id="path50"
         class="cls-1"
         d="m 157.04492,177.34375 c -0.05,-0.80666 -0.13476,-1.62776 -0.13476,-2.41406 0,22.78997 -21.65032,54.73118 -27.32032,62.70117 -6.34999,-3.11 -11.33062,-5.00016 -11.64062,-5.16016 14.82998,15.91999 38.91992,69.76953 38.91992,69.76953 0,0 0.17,-0.36796 0.17578,-0.38085 v -43.87891 c -0.0536,0.0999 -0.12501,0.19882 -0.17578,0.29883 -2.32,-4.57 -7.57977,-9.00016 -13.50976,-12.91016 a 106.72,106.72 0 0 0 13.50976,-48.70898 106.72,106.72 0 0 0 0.17578,1.91992 z" />
      <path
         class="cls-1"
         d="m 31.21,229.49 c 0,0 58.68,-6.06 79.9,-1.14 -0.25,-0.22 -4.42,-3.56 -10.29,-7.5 4.07,-8.9 20.91,-43.62 40.64,-55 -19.73,11.39 -58.22,8.61 -68,7.69 -0.48,-7.06 -1.29,-12.34 -1.35,-12.66 -6.31,20.83 -40.9,68.61 -40.9,68.61 z m 91.43,-52.79 a 106.74,106.74 0 0 0 -35.43,36.06 c -6.32,-3.2 -12.81,-5.52 -17.93,-5.25 2.8,-4.29 4,-11.08 4.42,-18.15 a 106.73,106.73 0 0 0 48.94,-12.66 z"
         id="path52" />
      <path
         class="cls-1"
         d="m 31.38,84.29 c 0,0 34.59,47.79 41,68.63 0.06,-0.33 0.87,-5.61 1.35,-12.66 9.73,-0.93 48.22,-3.71 68,7.69 -19.74,-11.4 -36.58,-46.12 -40.64,-55 5.87,-4 10,-7.29 10.29,-7.5 -21.32,4.9 -80,-1.16 -80,-1.16 z m 91.44,52.79 A 106.65,106.65 0 0 0 73.88,124.43 c -0.4,-7.08 -1.63,-13.86 -4.43,-18.16 5.12,0.28 11.61,-2 17.94,-5.24 a 106.77,106.77 0 0 0 35.43,36.05 z"
         id="path54" />
      <path
         id="circle56"
         class="cls-1"
         d="m 157.04492,152.41211 a 5.6500001,5.6500001 0 0 0 -5.47461,5.63867 5.6500001,5.6500001 0 0 0 5.47461,5.63672 z" />
      <path
         class="cls-1"
         d="m 153.85,138 2,17.62 -14.29,-10.5 a 15.63,15.63 0 0 1 -6.37,-12 l -0.45,-12.36 a 1,1 0 0 1 1.44,-0.83 l 10.48,6.56 a 15.64,15.64 0 0 1 7.19,11.51 z"
         id="path58" />
      <path
         class="cls-1"
         d="m 141.51,171 14.29,-10.49 -2,17.62 a 15.63,15.63 0 0 1 -7.24,11.54 l -10.48,6.56 a 0.94,0.94 0 0 1 -1.44,-0.83 l 0.45,-12.35 A 15.65,15.65 0 0 1 141.51,171 Z"
         id="path66" />
      <path
         class="cls-1"
         d="m 138.15,150.92 16.23,7.13 -16.23,7.13 a 15.65,15.65 0 0 1 -13.62,-0.51 l -10.92,-5.79 a 0.94,0.94 0 0 1 0,-1.66 l 10.92,-5.79 a 15.62,15.62 0 0 1 13.62,-0.51 z"
         id="path68" />
    </g>
  </g>
</svg>
