<?xml version="1.0" encoding="UTF-8" standalone="no"?>
<svg
   viewBox="0 0 314.09 314.09"
   version="1.1"
   id="svg14"
   sodipodi:docname="Element_Pyro_White.svg"
   inkscape:version="1.2.1 (9c6d41e410, 2022-07-14)"
   xmlns:inkscape="http://www.inkscape.org/namespaces/inkscape"
   xmlns:sodipodi="http://sodipodi.sourceforge.net/DTD/sodipodi-0.dtd"
   xmlns="http://www.w3.org/2000/svg"
   xmlns:svg="http://www.w3.org/2000/svg">
  <sodipodi:namedview
     id="namedview16"
     pagecolor="#ffffff"
     bordercolor="#111111"
     borderopacity="1"
     inkscape:showpageshadow="0"
     inkscape:pageopacity="0"
     inkscape:pagecheckerboard="1"
     inkscape:deskcolor="#d1d1d1"
     showgrid="false"
     inkscape:zoom="2.6648413"
     inkscape:cx="144.28626"
     inkscape:cy="157.23263"
     inkscape:window-width="1920"
     inkscape:window-height="1017"
     inkscape:window-x="-8"
     inkscape:window-y="-8"
     inkscape:window-maximized="1"
     inkscape:current-layer="layer1" />
  <defs
     id="defs4">
    <style
       id="style2">.cls-1{fill:#fff;}.cls-2{fill:none;}</style>
  </defs>
  <g
     inkscape:groupmode="layer"
     id="layer1"
     inkscape:label="Main">
    <g
       id="g689"
       inkscape:label="FirstHalf">
      <path
         id="path6"
         class="cls-1"
         d="M 157.04492 250.16406 L 157.04492 245.10547 C 112.85337 238.0011 134.56291 200.26165 146.5 196.2793 C 146.5 196.2793 111.96094 193.32948 111.96094 217.93945 C 111.96094 239.90809 137.87644 248.55627 157.04492 250.16406 z " />
      <path
         id="path646"
         class="cls-1"
         d="M 157.04492 293.69727 L 157.04492 275.75195 C 152.03468 271.09381 138.12276 259.74912 107.93945 244.82031 C 85.119476 233.54032 57.620626 223.89028 58.390625 190.32031 C 59.030624 162.40034 88.650391 151.06055 88.650391 151.06055 C 88.650391 151.06055 38.779837 202.25972 110.25977 236.17969 C 110.25977 236.17969 64.050482 164.36045 155.15039 148.73047 C 155.15039 148.73047 105.60937 136.09902 103.60938 93.539062 C 103.60938 93.539062 95.300066 117.47939 83.330078 130.10938 C 71.36009 142.73936 41.510004 172.48058 45.5 206.06055 C 49.405133 238.9263 124.55084 257.65506 157.04492 293.69727 z " />
      <path
         id="path644"
         class="cls-1"
         d="M 157.04492 113.28906 C 156.43034 116.54059 156.38191 119.99564 157.04492 123.63672 L 157.04492 113.28906 z "
         inkscape:label="path644" />
      <path
         id="path640"
         class="cls-1"
         d="M 157.04492 20.839844 C 156.29871 19.912725 155.60503 19.015951 154.81055 18.060547 C 154.81055 18.060547 154.81053 40.340954 141.81055 56.960938 C 128.81056 73.580921 117.86914 83.559627 117.86914 100.84961 C 117.86914 116.81614 128.69082 129.66092 157.04492 142.53516 L 157.04492 134.03906 C 152.22076 129.51091 146.82613 121.04586 149.17969 106.5293 C 150.02627 101.30762 153.17874 97.178412 157.04492 93.285156 L 157.04492 20.839844 z " />
      <path
         id="path8"
         style="display:inline"
         class="cls-1"
         d="M 157.04492 162.96094 C 146.14738 163.9513 134.32466 170.69061 123.30078 187 C 123.30078 187 142.03699 177.86747 157.04492 182.95898 L 157.04492 162.96094 z " />
    </g>
    <g
       id="g694"
       inkscape:label="SecondHalf">
      <path
         id="path642"
         class="cls-1"
         d="M 157.04492 113.28906 L 157.04492 123.63672 C 157.89073 128.28168 159.88452 133.2219 163.48047 138.44922 C 163.48047 138.44922 160.39918 137.1875 157.04492 134.03906 L 157.04492 142.53516 C 159.39516 143.60229 161.82431 144.67091 164.41992 145.74023 C 198.32989 159.71022 216 180.31963 216 199.59961 C 216 218.87959 202.37902 245.53039 157.28906 245.15039 C 157.20381 245.13699 157.12969 245.1191 157.04492 245.10547 L 157.04492 250.16406 C 159.34959 250.35737 161.57875 250.4707 163.63086 250.4707 C 182.75084 250.4707 241.26953 239.17073 241.26953 189.30078 C 241.26953 169.7208 233.61914 158.71094 233.61914 158.71094 C 233.61914 158.71094 262.6207 169.87956 259.2207 198.26953 C 254.89071 234.1295 203.04011 236.62942 159.41016 278.10938 C 159.41016 278.10938 158.64953 277.24379 157.04492 275.75195 L 157.04492 293.69727 C 157.75105 294.4805 158.46621 295.26062 159.13086 296.06055 C 159.13086 296.06055 184.40003 269.79022 210 257.49023 C 235.59997 245.19025 321.0499 205.62047 223 130.81055 C 223 130.81055 208.00094 120.81044 206.71094 93.230469 A 50.17 50.17 0 0 0 193.41016 126.82031 C 193.41016 147.43029 208.07922 143.81932 209.69922 163.0293 C 209.69922 163.0293 180.76961 138.4499 181.09961 119.16992 C 181.42961 99.889941 188.75 79.269531 188.75 79.269531 C 188.75 79.269531 161.0818 91.931317 157.04492 113.28906 z " />
      <path
         id="path638"
         class="cls-1"
         d="M 157.04492 20.839844 L 157.04492 93.285156 C 171.12463 79.106848 195.16855 68.206081 157.04492 20.839844 z " />
      <path
         id="path681"
         style="display:inline"
         class="cls-1"
         d="M 157.04492 162.96094 L 157.04492 182.95898 C 161.54675 184.48625 165.71591 187.27891 168.93945 192 C 182.90944 212.45998 169.93945 227 169.93945 227 C 169.93945 227 197.36914 218.43998 197.36914 197 C 197.36914 182.64704 179.11516 160.95521 157.04492 162.96094 z " />
    </g>
  </g>
</svg>
