<?xml version="1.0" encoding="UTF-8" standalone="no"?>
<svg
   viewBox="0 0 314.09 314.09"
   version="1.1"
   id="svg74"
   sodipodi:docname="Element_Cryo_White.svg"
   inkscape:version="1.2.1 (9c6d41e410, 2022-07-14)"
   xmlns:inkscape="http://www.inkscape.org/namespaces/inkscape"
   xmlns:sodipodi="http://sodipodi.sourceforge.net/DTD/sodipodi-0.dtd"
   xmlns="http://www.w3.org/2000/svg"
   xmlns:svg="http://www.w3.org/2000/svg">
  <sodipodi:namedview
     id="namedview76"
     pagecolor="#ffffff"
     bordercolor="#111111"
     borderopacity="1"
     inkscape:showpageshadow="0"
     inkscape:pageopacity="0"
     inkscape:pagecheckerboard="1"
     inkscape:deskcolor="#d1d1d1"
     showgrid="false"
     inkscape:zoom="2.6648413"
     inkscape:cx="145.78729"
     inkscape:cy="157.60788"
     inkscape:window-width="1920"
     inkscape:window-height="1017"
     inkscape:window-x="-8"
     inkscape:window-y="-8"
     inkscape:window-maximized="1"
     inkscape:current-layer="svg74" />
  <defs
     id="defs42">
    <style
       id="style40">.cls-1{fill:#fff;}.cls-2{fill:none;}</style>
  </defs>
  <g
     id="g195"
     inkscape:label="Main">
    <g
       id="g362"
       inkscape:label="SecondHalf">
      <path
         id="path341"
         class="cls-1"
         d="M 157.2207 11.839844 C 157.2207 11.839844 157.0507 12.207812 157.04492 12.220703 L 157.04492 56.099609 C 157.09848 55.999712 157.16993 55.900788 157.2207 55.800781 C 159.5407 60.370773 164.80047 64.800944 170.73047 68.710938 A 106.72 106.72 0 0 0 157.2207 117.41992 A 106.72 106.72 0 0 0 157.04492 115.20898 L 157.04492 136.10938 C 157.12437 137.1367 157.17969 138.15509 157.17969 139.15039 C 157.17969 116.36043 178.83002 84.419203 184.5 76.449219 C 190.84998 79.559213 195.83064 81.449375 196.14062 81.609375 C 181.31066 65.689407 157.2207 11.839844 157.2207 11.839844 z M 282.88086 84.589844 C 282.88086 84.589844 224.19998 90.660229 203 85.740234 C 203.25 85.950234 207.4193 89.300238 213.2793 93.240234 C 209.2193 102.13023 192.38037 136.85025 172.65039 148.24023 C 192.38037 136.84025 230.8704 139.62078 240.65039 140.55078 C 241.14039 147.60077 241.94977 152.89094 242.00977 153.21094 C 248.28976 132.38096 282.88086 84.589844 282.88086 84.589844 z M 226.86914 101.38086 C 233.19913 104.57086 239.69055 106.89914 244.81055 106.61914 C 242.01055 110.91914 240.81086 117.6993 240.38086 124.7793 C 213.63089 124.7893 192.72945 136.64086 191.43945 137.38086 A 106.58 106.58 0 0 0 226.86914 101.38086 z M 178.86133 119.75391 A 0.94 0.94 0 0 0 178.31055 119.89062 L 167.83008 126.44922 A 15.68 15.68 0 0 0 160.58008 138 L 158.96094 152.67578 A 5.6500001 5.6500001 0 0 0 157.2207 152.40039 A 5.6500001 5.6500001 0 0 0 157.04492 152.41211 L 157.04492 163.6875 A 5.6500001 5.6500001 0 0 0 157.2207 163.69922 A 5.6500001 5.6500001 0 0 0 158.96094 163.41211 L 160.58008 178.13086 A 15.68 15.68 0 0 0 167.83008 189.66992 L 178.31055 196.23047 A 0.93 0.93 0 0 0 179.74023 195.40039 L 179.30078 183.05078 A 15.65 15.65 0 0 0 172.92969 171 L 160.99414 162.23828 A 5.6500001 5.6500001 0 0 0 162.73242 159.22461 L 176.28906 165.17969 A 15.65 15.65 0 0 0 189.91016 164.66992 L 200.83008 158.88086 A 0.94 0.94 0 0 0 200.83008 157.2207 L 189.91016 151.42969 A 15.62 15.62 0 0 0 176.28906 150.91992 L 162.74414 156.87109 A 5.6500001 5.6500001 0 0 0 161.00195 153.85352 L 172.92969 145.08984 A 15.63 15.63 0 0 0 179.30078 133.08008 L 179.74023 120.7207 A 0.94 0.94 0 0 0 178.86133 119.75391 z M 241.75977 161.16992 C 241.69977 161.48992 240.89016 166.78009 240.41016 173.83008 C 230.67017 174.76008 192.19014 177.54061 172.41016 166.14062 C 192.15014 177.54061 208.98079 212.25063 213.05078 221.14062 C 207.18079 225.08062 203.04977 228.43063 202.75977 228.64062 C 223.99974 223.73063 282.69922 229.80078 282.69922 229.80078 C 282.69922 229.80078 248.10976 181.9999 241.75977 161.16992 z M 191.26953 177 A 106.79 106.79 0 0 0 240.21094 189.65039 C 240.60094 196.73038 241.84086 203.51055 244.63086 207.81055 C 239.52086 207.53055 233.01921 209.81078 226.69922 213.05078 A 106.77 106.77 0 0 0 191.26953 177 z M 157.04492 177.34375 L 157.04492 198.58008 A 106.72 106.72 0 0 0 170.38086 245.36914 C 164.58064 249.16423 159.43895 253.51541 157.04492 257.98047 L 157.04492 301.85938 C 157.56472 300.69951 181.12307 248.21568 195.86914 232.4707 C 195.55914 232.5807 190.58045 234.52086 184.23047 237.63086 C 178.7561 229.90689 158.44406 199.91705 157.04492 177.34375 z "
         style="stroke:#000000;fill:#000000" />
    </g>
    <g
       id="g352"
       inkscape:label="FirstHalf"
       style="display:inline">
      <path
         id="path44"
         class="cls-1"
         d="M 157.04492 12.220703 C 156.52512 13.380563 132.96679 65.8644 118.2207 81.609375 C 118.5307 81.499375 123.50938 79.609213 129.85938 76.449219 C 135.28173 84.099821 155.30512 113.61317 157.04492 136.10938 L 157.04492 115.20898 A 106.72 106.72 0 0 0 143.71094 68.710938 C 149.51115 64.915852 154.6509 60.564664 157.04492 56.099609 L 157.04492 12.220703 z M 31.380859 84.289062 C 31.380859 84.289062 65.970866 132.07994 72.380859 152.91992 C 72.440859 152.58992 73.250469 147.30976 73.730469 140.25977 C 83.460459 139.32977 121.95049 136.54923 141.73047 147.94922 C 121.99049 136.54923 105.14984 101.82921 101.08984 92.949219 C 106.95984 88.949223 111.09086 85.659219 111.38086 85.449219 C 90.060881 90.349214 31.380859 84.289062 31.380859 84.289062 z M 87.390625 101.0293 A 106.77 106.77 0 0 0 122.82031 137.08008 A 106.65 106.65 0 0 0 73.880859 124.42969 C 73.48086 117.34969 72.249216 110.56953 69.449219 106.26953 C 74.569214 106.54953 81.060631 104.26929 87.390625 101.0293 z M 135.70508 119.82812 A 1 1 0 0 0 134.74023 120.75977 L 135.18945 133.11914 A 15.63 15.63 0 0 0 141.56055 145.11914 L 153.45703 153.86133 A 5.6500001 5.6500001 0 0 0 151.70703 156.875 L 138.15039 150.91992 A 15.62 15.62 0 0 0 124.5293 151.42969 L 113.60938 157.2207 A 0.94 0.94 0 0 0 113.60938 158.88086 L 124.5293 164.66992 A 15.65 15.65 0 0 0 138.15039 165.17969 L 151.70703 159.22461 A 5.6500001 5.6500001 0 0 0 153.45117 162.23438 L 141.50977 171 A 15.65 15.65 0 0 0 135.08984 183.05078 L 134.64062 195.40039 A 0.94 0.94 0 0 0 136.08008 196.23047 L 146.56055 189.66992 A 15.63 15.63 0 0 0 153.80078 178.13086 L 155.47266 163.4043 A 5.6500001 5.6500001 0 0 0 157.04492 163.6875 L 157.04492 152.41211 A 5.6500001 5.6500001 0 0 0 155.51562 152.67773 L 153.84961 138 A 15.64 15.64 0 0 0 146.66016 126.49023 L 136.17969 119.92969 A 1 1 0 0 0 135.70508 119.82812 z M 72.109375 160.88086 C 65.799381 181.71084 31.210938 229.49023 31.210938 229.49023 C 31.210938 229.49023 89.889396 223.42961 111.10938 228.34961 C 110.85938 228.12961 106.69031 224.78961 100.82031 220.84961 C 104.89031 211.94962 121.73096 177.2296 141.46094 165.84961 C 121.73096 177.2396 83.240928 174.45906 73.460938 173.53906 C 72.980938 166.47907 72.169375 161.20086 72.109375 160.88086 z M 156.91016 174.92969 C 156.91016 197.71963 135.25984 229.66088 129.58984 237.63086 C 123.23986 234.52086 118.25922 232.6307 117.94922 232.4707 C 132.77918 248.39068 156.86914 302.24023 156.86914 302.24023 C 156.86914 302.24023 157.03914 301.87226 157.04492 301.85938 L 157.04492 257.98047 C 156.99132 258.08037 156.91991 258.17929 156.86914 258.2793 C 154.54914 253.7093 149.28936 249.27914 143.35938 245.36914 A 106.72 106.72 0 0 0 156.86914 196.66016 A 106.72 106.72 0 0 0 157.04492 198.58008 L 157.04492 177.34375 C 156.99492 176.53709 156.91016 175.71599 156.91016 174.92969 z M 122.64062 176.69922 A 106.74 106.74 0 0 0 87.210938 212.75977 C 80.890944 209.55977 74.399292 207.23977 69.279297 207.50977 C 72.079294 203.21977 73.279219 196.42937 73.699219 189.35938 A 106.73 106.73 0 0 0 122.64062 176.69922 z "
         style="stroke:#000000;fill:#000000" />
    </g>
  </g>
</svg>
