<?xml version="1.0" encoding="UTF-8" standalone="no"?>
<svg
   viewBox="0 0 314.09 314.09"
   version="1.1"
   id="svg26"
   sodipodi:docname="Element_Electro_White.svg"
   inkscape:version="1.2.1 (9c6d41e410, 2022-07-14)"
   xmlns:inkscape="http://www.inkscape.org/namespaces/inkscape"
   xmlns:sodipodi="http://sodipodi.sourceforge.net/DTD/sodipodi-0.dtd"
   xmlns="http://www.w3.org/2000/svg"
   xmlns:svg="http://www.w3.org/2000/svg">
  <sodipodi:namedview
     id="namedview28"
     pagecolor="#ffffff"
     bordercolor="#111111"
     borderopacity="1"
     inkscape:showpageshadow="0"
     inkscape:pageopacity="0"
     inkscape:pagecheckerboard="1"
     inkscape:deskcolor="#d1d1d1"
     showgrid="false"
     inkscape:zoom="2.6648413"
     inkscape:cx="144.66152"
     inkscape:cy="157.60788"
     inkscape:window-width="1920"
     inkscape:window-height="1017"
     inkscape:window-x="-8"
     inkscape:window-y="-8"
     inkscape:window-maximized="1"
     inkscape:current-layer="g135" />
  <defs
     id="defs18">
    <style
       id="style16">.cls-1{fill:#fff;}.cls-2{fill:none;}</style>
  </defs>
  <g
     id="g135"
     inkscape:label="Main">
    <g
       id="g211"
       inkscape:label="SecondHalf">
      <path
         id="path201"
         class="cls-1"
         d="M 157.81055 29.710938 C 231.57039 62.000872 229.15973 107.0002 217.00977 127.91016 C 204.85979 148.82012 174.03965 155.7399 158.42969 146.66992 C 157.95795 146.39583 157.50705 146.08753 157.04492 145.79688 L 157.04492 172.4668 C 159.74437 168.22664 163.01608 164.74205 166.69922 162.48047 C 182.08918 153.03049 203.31055 152.40049 211.31055 165.48047 C 219.31053 178.56045 211.31055 193.48047 211.31055 193.48047 C 275.53041 155.27055 247.07039 92.410467 246.65039 91.480469 C 263.16035 97.870455 282.93078 135.41008 283.55078 136.58008 A 127.36 127.36 0 0 0 157.85938 29.710938 L 157.81055 29.710938 z M 157.04492 88.619141 L 157.04492 93.873047 C 161.29896 92.787058 164.57031 92.720703 164.57031 92.720703 C 162.02182 91.192473 159.52191 89.86153 157.04492 88.619141 z M 270 217.38086 C 208.98889 265.13873 171.07935 245.22564 157.04492 225.2793 L 157.04492 264.74805 C 163.18276 266.53351 167.28906 267.03906 167.28906 267.03906 C 164.69382 269.0157 161.12605 270.52612 157.04492 271.6875 L 157.04492 284.27344 A 127.47 127.47 0 0 0 270 217.38086 z "
         style="stroke:#000000;fill:#000000"
         inkscape:label="path201" />
    </g>
    <g
       id="g206"
       inkscape:label="FirstHalf"
       style="fill:#000000;stroke:#000000">
      <path
         id="path20"
         class="cls-1"
         d="M 80.210938 56.119141 A 127.39 127.39 0 0 0 47.779297 221.07031 C 38.609315 141.08047 78.71044 120.55078 102.90039 120.55078 C 127.09035 120.55078 148.55078 143.70957 148.55078 161.76953 C 148.55078 179.82949 137.99012 198.2207 122.66016 198.2207 C 107.33018 198.2207 98.820312 183.58008 98.820312 183.58008 C 98.03914 240.67392 137.77556 259.1427 157.04492 264.74805 L 157.04492 225.2793 C 156.49773 224.50161 155.91378 223.723 155.43945 222.94922 C 145.82449 207.26404 148.46475 185.9441 157.04492 172.4668 L 157.04492 145.79688 C 142.21491 136.46921 132.50112 118.83973 139.91992 105.98047 C 144.24774 98.478916 151.50315 95.287774 157.04492 93.873047 L 157.04492 88.619141 C 96.763925 58.383779 58 110 58 110 C 55.830004 92.510034 79.260938 57.539137 80.210938 56.119141 z M 157.04492 271.6875 C 138.82751 276.87166 110.13883 274.95101 109.50977 274.91016 A 127.47 127.47 0 0 0 157.04492 284.27344 L 157.04492 271.6875 z "
         style="stroke:#000000;fill:#000000" />
    </g>
  </g>
</svg>
