<?xml version="1.0" encoding="UTF-8" standalone="no"?>
<svg
   viewBox="0 0 314.09 314.09"
   version="1.1"
   id="svg50"
   sodipodi:docname="Element_Hydro_White.svg"
   inkscape:version="1.2.1 (9c6d41e410, 2022-07-14)"
   xmlns:inkscape="http://www.inkscape.org/namespaces/inkscape"
   xmlns:sodipodi="http://sodipodi.sourceforge.net/DTD/sodipodi-0.dtd"
   xmlns="http://www.w3.org/2000/svg"
   xmlns:svg="http://www.w3.org/2000/svg">
  <sodipodi:namedview
     id="namedview52"
     pagecolor="#ffffff"
     bordercolor="#111111"
     borderopacity="1"
     inkscape:showpageshadow="0"
     inkscape:pageopacity="0"
     inkscape:pagecheckerboard="1"
     inkscape:deskcolor="#d1d1d1"
     showgrid="false"
     inkscape:zoom="2.6648413"
     inkscape:cx="145.78729"
     inkscape:cy="157.60788"
     inkscape:window-width="1920"
     inkscape:window-height="1017"
     inkscape:window-x="-8"
     inkscape:window-y="-8"
     inkscape:window-maximized="1"
     inkscape:current-layer="g165" />
  <defs
     id="defs30">
    <style
       id="style28">.cls-1{fill:#fff;}.cls-2{fill:none;}</style>
  </defs>
  <g
     id="g165"
     inkscape:label="Main">
    <g
       id="g476"
       inkscape:label="SecondHalf">
      <path
         id="path32"
         class="cls-1"
         d="M 157.04492 34.390625 L 157.04492 73.962891 A 98.16 98.16 0 0 1 157.38086 73.939453 C 210.76076 74.399453 254.42008 118.10057 254.83008 171.48047 A 98.16 98.16 0 0 1 213.58008 252.31055 A 86.07 86.07 0 0 0 157.04492 102.23633 L 157.04492 137.52344 C 191.55561 139.33828 219.91976 167.09781 221.75977 202 A 68.25 68.25 0 0 1 215.64062 234.14062 C 205.79064 255.69058 184.21902 269.45064 160.53906 270.39062 C 159.36852 270.46051 158.2116 270.45982 157.04492 270.46094 L 157.04492 279.97852 C 224.83249 279.72131 280.28845 223.54323 279.58008 155.69922 A 123 123 0 0 0 157.04492 34.390625 z M 157.04492 171.98828 L 157.04492 200.44531 A 15 15 0 0 1 165.89062 211.00977 A 15.05 15.05 0 0 0 166.14062 212.5293 A 17.06 17.06 0 0 0 179.5293 225.75 A 17.27 17.27 0 0 0 187.73047 225.35938 A 17 17 0 0 0 199.82031 207.57031 L 199.82031 207.46094 A 16.82 16.82 0 0 0 199.51953 205.46094 C 199.46953 205.24094 199.42936 205.09055 199.35938 204.81055 C 199.28938 204.53055 199.22086 204.26 199.13086 204 A 44.18 44.18 0 0 0 157.04492 171.98828 z M 192.5293 236.16992 C 191.4093 241.21992 182.62957 253.66016 163.09961 253.66016 A 37.51 37.51 0 0 1 157.04492 253.0293 L 157.04492 260.15039 C 180.00142 259.94045 191.14826 243.65136 192.5293 236.16992 z M 118.41992 273.94922 C 128.47991 277.77921 141.08916 280.38 156.61914 280 A 122.71 122.71 0 0 1 118.41992 273.94922 z "
         style="stroke:#000000;fill:#000000" />
    </g>
    <g
       id="g362"
       inkscape:label="FirstHalf"
       style="display:inline">
      <path
         id="path36"
         class="cls-1"
         d="M 157.04492 34.390625 A 123 123 0 0 0 49.140625 97.240234 C 48.700625 98.020234 48.269375 98.809377 47.859375 99.609375 A 16.37 16.37 0 0 0 75.710938 116.2793 C 76.050936 115.8193 76.370938 115.36039 76.710938 114.90039 A 98.16 98.16 0 0 1 157.04492 73.962891 L 157.04492 34.390625 z M 47.859375 99.609375 C 48.269375 98.809376 48.700625 98.020234 49.140625 97.240234 A 15.9 15.9 0 0 0 47.859375 99.609375 z M 157.04492 102.23633 A 86.07 86.07 0 0 0 125.58008 107.69922 L 124.75977 108.00977 L 124.42969 108.14062 L 124.35938 108.14062 L 124.17969 108.2207 L 124.05078 108.2207 A 16.81 16.81 0 0 0 131.05078 140.33984 A 17.07 17.07 0 0 0 135.18945 139.83008 L 135.4707 139.75 A 68 68 0 0 1 153.09961 137.34961 C 154.42919 137.34261 155.73207 137.4544 157.04492 137.52344 L 157.04492 102.23633 z M 55.224609 143.28711 A 16.31 16.31 0 1 0 58.330078 173.4707 A 16.28 16.28 0 0 0 67.130859 159 A 16.31 16.31 0 0 0 55.224609 143.28711 z M 151.27344 171.9707 A 44.18024 44.18024 0 0 0 156.60938 260.16992 C 156.75932 260.16992 156.89597 260.15169 157.04492 260.15039 L 157.04492 253.0293 A 37.51 37.51 0 0 1 147.76953 250.41016 A 37.87 37.87 0 0 1 129.14062 232.33008 A 17.1 17.1 0 0 1 127.39062 225 A 26.08 26.08 0 0 1 147.41992 199.58984 C 147.89992 199.46984 148.39064 199.36906 148.89062 199.28906 A 15.62 15.62 0 0 1 151.17969 199.11914 A 15 15 0 0 1 157.04492 200.44531 L 157.04492 171.98828 A 44.18 44.18 0 0 0 151.27344 171.9707 z M 73.220703 200.7793 A 11.4 11.4 0 0 0 71.220703 200.93945 A 11.93 11.93 0 0 0 73.220703 224.64062 L 73.519531 224.64062 A 11.76 11.76 0 0 0 78 223.64062 A 11.94 11.94 0 0 0 85.109375 212.69922 A 11.93 11.93 0 0 0 73.220703 200.7793 z M 85.080078 248.7793 C 85.380078 249.2693 94.910906 264.98947 118.38086 273.93945 A 122.71 122.71 0 0 0 118.44141 273.95703 C 128.49792 277.78262 141.10003 280.37973 156.61914 280 A 122.71 122.71 0 0 1 149.46484 279.77344 A 122.71 122.71 0 0 0 156.58008 279.99023 C 156.73593 279.99023 156.8892 279.97912 157.04492 279.97852 L 157.04492 270.46094 C 156.87602 270.4611 156.70852 270.4707 156.53906 270.4707 A 123.38 123.38 0 0 1 120.66016 265.7793 C 119.53016 265.4793 118.3807 265.1393 117.2207 264.7793 A 108.58 108.58 0 0 1 85.080078 248.7793 z M 118.58398 273.99805 A 122.71 122.71 0 0 0 125.04102 275.88086 A 122.71 122.71 0 0 1 118.58398 273.99805 z M 126.91016 276.35352 A 122.71 122.71 0 0 0 132.49219 277.60352 A 122.71 122.71 0 0 1 126.91016 276.35352 z M 133.78125 277.86914 A 122.71 122.71 0 0 0 140.78906 278.97852 A 122.71 122.71 0 0 1 133.78125 277.86914 z M 141.8418 279.0957 A 122.71 122.71 0 0 0 147.9668 279.67383 A 122.71 122.71 0 0 1 141.8418 279.0957 z "
         style="stroke:#000000;fill:#000000" />
    </g>
  </g>
</svg>
