<?xml version="1.0" encoding="UTF-8" standalone="no"?>
<svg
   viewBox="0 0 314.09 314.09"
   version="1.1"
   id="svg14"
   sodipodi:docname="Element_Pyro_White.svg"
   inkscape:version="1.2.1 (9c6d41e410, 2022-07-14)"
   xmlns:inkscape="http://www.inkscape.org/namespaces/inkscape"
   xmlns:sodipodi="http://sodipodi.sourceforge.net/DTD/sodipodi-0.dtd"
   xmlns="http://www.w3.org/2000/svg"
   xmlns:svg="http://www.w3.org/2000/svg">
  <sodipodi:namedview
     id="namedview16"
     pagecolor="#ffffff"
     bordercolor="#111111"
     borderopacity="1"
     inkscape:showpageshadow="0"
     inkscape:pageopacity="0"
     inkscape:pagecheckerboard="1"
     inkscape:deskcolor="#d1d1d1"
     showgrid="true"
     inkscape:zoom="3.7686547"
     inkscape:cx="125.3763"
     inkscape:cy="212.01199"
     inkscape:window-width="1920"
     inkscape:window-height="1017"
     inkscape:window-x="-8"
     inkscape:window-y="-8"
     inkscape:window-maximized="1"
     inkscape:current-layer="layer1" />
  <defs
     id="defs4">
    <style
       id="style2">.cls-1{fill:#fff;}.cls-2{fill:none;}</style>
  </defs>
  <g
     inkscape:groupmode="layer"
     id="layer1"
     inkscape:label="Main">
    <g
       id="g689"
       inkscape:label="FirstHalf"
       style="fill:#000000;stroke:#000000;stroke-opacity:1">
      <path
         id="path6"
         class="cls-1"
         d="M 154.81055 18.060547 C 154.81055 18.060547 154.81051 40.34097 141.81055 56.960938 C 128.81057 73.580904 117.86914 83.559644 117.86914 100.84961 C 117.86914 116.81612 128.69085 129.66093 157.04492 142.53516 L 157.04492 134.03906 C 152.22077 129.51092 146.82613 121.04584 149.17969 106.5293 C 150.02627 101.30762 153.17875 97.178408 157.04492 93.285156 L 157.04492 20.839844 C 156.29871 19.912726 155.60503 19.01595 154.81055 18.060547 z M 103.60938 93.539062 C 103.60938 93.539062 95.300054 117.4794 83.330078 130.10938 C 71.360102 142.73934 41.510008 172.48061 45.5 206.06055 C 49.405129 238.92626 124.55087 257.65509 157.04492 293.69727 L 157.04492 275.75195 C 152.03469 271.09382 138.12273 259.74911 107.93945 244.82031 C 85.119502 233.54033 57.620627 223.89025 58.390625 190.32031 C 59.030623 162.40037 88.650391 151.06055 88.650391 151.06055 C 88.650391 151.06055 38.779904 202.25975 110.25977 236.17969 C 110.25977 236.17969 64.050574 164.36043 155.15039 148.73047 C 155.15039 148.73047 105.60936 136.09898 103.60938 93.539062 z M 157.04492 113.28906 C 156.43034 116.54059 156.38191 119.99564 157.04492 123.63672 L 157.04492 113.28906 z M 157.04492 162.96094 C 146.14739 163.9513 134.32465 170.69063 123.30078 187 C 123.30078 187 142.03701 177.86748 157.04492 182.95898 L 157.04492 162.96094 z M 143.3125 196.16992 C 134.76207 196.14264 111.96094 197.94387 111.96094 217.93945 C 111.96094 239.90807 137.87646 248.55627 157.04492 250.16406 L 157.04492 245.10547 C 112.85342 238.00111 134.56292 200.26164 146.5 196.2793 C 146.5 196.2793 145.28568 196.17622 143.3125 196.16992 z "
         style="fill:#000000;stroke:#000000;stroke-opacity:1" />
    </g>
    <g
       id="g694"
       inkscape:label="SecondHalf"
       style="fill:#000000;fill-opacity:1;stroke:#000000;stroke-opacity:1">
      <path
         id="path642"
         class="cls-1"
         d="M 157.04492 20.839844 L 157.04492 93.285156 C 171.12462 79.106862 195.16851 68.206033 157.04492 20.839844 z M 188.75 79.269531 C 188.75 79.269531 161.0818 91.931341 157.04492 113.28906 L 157.04492 123.63672 C 157.89073 128.28167 159.88452 133.2219 163.48047 138.44922 C 163.48047 138.44922 160.39918 137.1875 157.04492 134.03906 L 157.04492 142.53516 C 159.39516 143.60229 161.82431 144.67092 164.41992 145.74023 C 198.32986 159.71021 216 180.31965 216 199.59961 C 216 218.87957 202.37898 245.53039 157.28906 245.15039 C 157.20381 245.13699 157.12969 245.1191 157.04492 245.10547 L 157.04492 250.16406 C 159.34959 250.35737 161.57875 250.4707 163.63086 250.4707 C 182.75082 250.4707 241.26953 239.17068 241.26953 189.30078 C 241.26953 169.72082 233.61914 158.71094 233.61914 158.71094 C 233.61914 158.71094 262.6207 169.87959 259.2207 198.26953 C 254.89072 234.12947 203.04006 236.62946 159.41016 278.10938 C 159.41016 278.10938 158.64953 277.24379 157.04492 275.75195 L 157.04492 293.69727 C 157.75105 294.48049 158.46621 295.26062 159.13086 296.06055 C 159.13086 296.06055 184.40006 269.79021 210 257.49023 C 235.59994 245.19027 321.0498 205.62039 223 130.81055 C 223 130.81055 208.00094 120.81041 206.71094 93.230469 A 50.17 50.17 0 0 0 193.41016 126.82031 C 193.41016 147.43027 208.07922 143.81934 209.69922 163.0293 C 209.69922 163.0293 180.76961 138.44988 181.09961 119.16992 C 181.42961 99.889962 188.75 79.269531 188.75 79.269531 z M 159.10156 162.8418 C 158.41976 162.85914 157.73462 162.89826 157.04492 162.96094 L 157.04492 182.95898 C 161.54675 184.48625 165.71592 187.27891 168.93945 192 C 182.90943 212.45996 169.93945 227 169.93945 227 C 169.93945 227 197.36914 218.43996 197.36914 197 C 197.36914 183.09558 180.23737 162.3042 159.10156 162.8418 z "
         style="fill:#000000;fill-opacity:1;stroke:#000000;stroke-opacity:1" />
    </g>
  </g>
</svg>
